<svg xmlns="http://www.w3.org/2000/svg" xmlns:xlink="http://www.w3.org/1999/xlink" fill="none" version="1.1" width="60" height="60" viewBox="0 0 60 60"><defs><clipPath id="master_svg0_944_001313"><rect x="0" y="0" width="60" height="60" rx="0"/></clipPath><clipPath id="master_svg1_944_001315"><rect x="8" y="6.999998092651367" width="42.91304397583008" height="42" rx="0"/></clipPath><clipPath id="master_svg2_944_001316"><rect x="8" y="6.999998092651367" width="42.91304397583008" height="42" rx="0"/></clipPath><linearGradient x1="0.14395791292190552" y1="0.4754294753074646" x2="1.0954738855361938" y2="0.6399807929992676" id="master_svg3_sa656_021635"><stop offset="0%" stop-color="#3380F2" stop-opacity="1"/><stop offset="53.64999771118164%" stop-color="#5B8FF3" stop-opacity="1"/><stop offset="100%" stop-color="#F886A1" stop-opacity="1"/></linearGradient><linearGradient x1="-0.8542884588241577" y1="0.46570512652397156" x2="1.8741538524627686" y2="0.5348418951034546" id="master_svg4_sa656_021636"><stop offset="0%" stop-color="#3380F2" stop-opacity="1"/><stop offset="53.64999771118164%" stop-color="#5B8FF3" stop-opacity="1"/><stop offset="100%" stop-color="#F886A1" stop-opacity="1"/></linearGradient></defs><g><g clip-path="url(#master_svg0_944_001313)"><g><g clip-path="url(#master_svg1_944_001315)"></g><g clip-path="url(#master_svg2_944_001316)"><g><g><path d="M16.091660631027224,37.69229809265137L13.63689063102722,44.512798092651366C13.455060631027223,45.051298092651365,13.273220631027222,45.58969809265137,13.000470631027222,46.12819809265137C12.818630631027222,46.666698092651366,12.545880631027222,47.11539809265137,12.273130631027222,47.56409809265137C12.000380631027221,48.012798092651366,11.727620631027222,48.37179809265137,11.363950631027222,48.640998092651365C11.000280631027222,48.91029809265137,10.63661063102722,48.99999809265137,10.18203063102722,48.99999809265137C9.363770631027222,48.99999809265137,8.727348631027223,48.73079809265137,8.272761631027223,48.28209809265137C7.818173631027221,47.74359809265137,7.818173631027221,46.84619809265137,8.272761631027223,45.49999809265137L21.001220631027223,9.064098092651367C21.183020631027222,8.435898092651367,21.54672063102722,7.897434092651367,22.09222063102722,7.538460092651367C22.546820631027224,7.179485092651367,23.183220631027222,6.999998199634367,24.001520631027223,6.999998199634367C24.81972063102722,6.999998199634367,25.547120631027223,7.179485092651367,26.09262063102722,7.538460092651367C26.63812063102722,7.897434092651367,27.001720631027222,8.435898092651367,27.18362063102722,9.064098092651367L39.91202063102722,45.58969809265137C40.27572063102722,46.57689809265137,40.27572063102722,47.384598092651366,40.00292063102722,48.012798092651366C39.73022063102722,48.640998092651365,39.09382063102722,48.99999809265137,38.00272063102722,48.99999809265137C37.27542063102722,48.99999809265137,36.72992063102723,48.82049809265137,36.36622063102722,48.46149809265137C35.91162063102722,48.012798092651366,35.63892063102722,47.47439809265137,35.45712063102722,46.84619809265137L32.09312063102722,37.69229809265137L16.091660631027224,37.69229809265137ZM31.00212063102722,33.56409809265136L24.09242063102722,13.102558092651368L17.18267063102722,33.56409809265136L31.00212063102722,33.56409809265136Z" fill="url(#master_svg3_sa656_021635)" fill-opacity="1"/></g><g><path d="M50.9130401525116,46.75639809265137C50.9130401525116,48.28209809265137,50.094780152511596,48.99999809265137,48.458270152511595,48.99999809265137C46.9126691525116,48.99999809265137,46.1853301525116,48.28209809265137,46.1853301525116,46.75639809265137L46.1853301525116,9.243588092651368C46.1853301525116,7.8076900926513675,46.9126691525116,6.999998092651367,48.458270152511595,6.999998092651367C49.2765301525116,6.999998092651367,49.822030152511594,7.179485092651367,50.2766201525116,7.538460092651367C50.6402901525116,7.897434092651367,50.9130401525116,8.435898092651367,50.9130401525116,9.243588092651368L50.9130401525116,46.75639809265137Z" fill="url(#master_svg4_sa656_021636)" fill-opacity="1"/></g></g></g></g></g></g></svg>