<svg xmlns="http://www.w3.org/2000/svg" xmlns:xlink="http://www.w3.org/1999/xlink" fill="none" version="1.1" width="60" height="60" viewBox="0 0 60 60"><defs><clipPath id="master_svg0_944_001331"><rect x="0" y="0" width="60" height="60" rx="0"/></clipPath><clipPath id="master_svg1_944_001333"><rect x="8.999984741210938" y="6" width="42.79999923706055" height="47.20000076293945" rx="0"/></clipPath><linearGradient x1="0.012396551668643951" y1="0.38947412371635437" x2="0.9845948219299316" y2="0.6111896634101868" id="master_svg2_sa656_021955"><stop offset="0%" stop-color="#3380F2" stop-opacity="1"/><stop offset="53.64999771118164%" stop-color="#5B8FF3" stop-opacity="1"/><stop offset="100%" stop-color="#F886A1" stop-opacity="1"/></linearGradient><linearGradient x1="0.013500000350177288" y1="0.3863965570926666" x2="0.985689640045166" y2="0.608112096786499" id="master_svg3_sa656_021956"><stop offset="0%" stop-color="#3380F2" stop-opacity="1"/><stop offset="53.64999771118164%" stop-color="#5B8FF3" stop-opacity="1"/><stop offset="100%" stop-color="#F886A1" stop-opacity="1"/></linearGradient><linearGradient x1="0.07996736466884613" y1="0.43875259160995483" x2="1.0347132682800293" y2="0.6819999814033508" id="master_svg4_sa656_021957"><stop offset="0%" stop-color="#3380F2" stop-opacity="1"/><stop offset="53.64999771118164%" stop-color="#5B8FF3" stop-opacity="1"/><stop offset="100%" stop-color="#F886A1" stop-opacity="1"/></linearGradient><linearGradient x1="0.0145344827324152" y1="0.3894827663898468" x2="0.9867413640022278" y2="0.6111896634101868" id="master_svg5_sa656_021958"><stop offset="0%" stop-color="#3380F2" stop-opacity="1"/><stop offset="53.64999771118164%" stop-color="#5B8FF3" stop-opacity="1"/><stop offset="100%" stop-color="#F886A1" stop-opacity="1"/></linearGradient></defs><g><g clip-path="url(#master_svg0_944_001331)"><g><g clip-path="url(#master_svg1_944_001333)"><g><g><path d="M14.799984741210938,26.499999618530275C17.999984741210938,26.499999618530275,20.59998474121094,23.899999618530273,20.59998474121094,20.699999618530274C20.59998474121094,17.499999618530275,17.999984741210938,14.899999618530273,14.799984741210938,14.899999618530273C11.599984741210937,14.899999618530273,8.999984741210938,17.499999618530275,8.999984741210938,20.699999618530274C8.999984741210938,23.899999618530273,11.599984741210937,26.499999618530275,14.799984741210938,26.499999618530275ZM14.799984741210938,17.599999618530273C16.499984741210938,17.599999618530273,17.899984741210936,18.999999618530275,17.899984741210936,20.699999618530274C17.899984741210936,22.399999618530273,16.499984741210938,23.799999618530272,14.799984741210938,23.799999618530272C13.899984741210938,23.799999618530272,13.199984741210937,23.499999618530275,12.599984741210937,22.899999618530273C11.999984741210938,22.299999618530272,11.699984741210937,21.599999618530273,11.699984741210937,20.699999618530274C11.599984741210937,18.999999618530275,12.999984741210938,17.599999618530273,14.799984741210938,17.599999618530273Z" fill="url(#master_svg2_sa656_021955)" fill-opacity="1"/></g><g><path d="M30.39998416900635,41.70000076293945C27.19998416900635,41.70000076293945,24.599984169006348,44.300000762939455,24.599984169006348,47.50000076293945C24.599984169006348,50.70000076293945,27.19998416900635,53.300000762939455,30.39998416900635,53.300000762939455C33.59998416900635,53.300000762939455,36.19998416900635,50.70000076293945,36.19998416900635,47.50000076293945C36.19998416900635,44.300000762939455,33.59998416900635,41.70000076293945,30.39998416900635,41.70000076293945ZM32.59998416900635,49.70000076293945C31.999984169006346,50.300000762939455,31.299984169006347,50.60000076293945,30.39998416900635,50.60000076293945C28.69998416900635,50.60000076293945,27.299984169006347,49.20000076293945,27.299984169006347,47.50000076293945C27.299984169006347,45.800000762939455,28.69998416900635,44.400000762939456,30.39998416900635,44.400000762939456C31.299984169006347,44.400000762939456,31.999984169006346,44.70000076293945,32.59998416900635,45.30001076293945C33.19998416900635,45.900000762939456,33.499984169006346,46.600010762939455,33.499984169006346,47.50001076293945C33.499984169006346,48.300000762939455,33.19998416900635,49.10000076293945,32.59998416900635,49.70000076293945Z" fill="url(#master_svg3_sa656_021956)" fill-opacity="1"/></g><g><path d="M45.99998474121094,32.8C44.299984741210935,32.8,42.799984741210935,33.5,41.69998474121094,34.7L31.699984741210937,28.9L31.699984741210937,17.4C34.299984741210935,16.8,36.19998474121094,14.5,36.19998474121094,11.8C36.19998474121094,8.6,33.59998474121094,5.999999523163,30.399984741210936,5.999999523163C27.199984741210937,5.999999523163,24.59998474121094,8.6,24.59998474121094,11.8C24.59998474121094,14.5,26.499984741210938,16.8,29.09998474121094,17.4L29.09998474121094,28.9L19.09998474121094,34.7C17.999984741210938,33.5,16.499984741210938,32.8,14.799984741210938,32.8C11.599984741210937,32.8,8.999986648560938,35.4,8.999986648560938,38.6C8.999986648560938,41.8,11.599984741210937,44.4,14.799984741210938,44.4C17.999984741210938,44.4,20.59998474121094,41.8,20.59998474121094,38.6C20.59998474121094,38,20.499984741210938,37.5,20.399984741210936,37L30.499984741210938,31.2L40.49998474121094,37C40.399984741210936,37.5,40.299984741210935,38,40.299984741210935,38.6C40.299984741210935,41.8,42.899984741210936,44.4,46.09998474121094,44.4C49.299984741210935,44.4,51.899984741210936,41.8,51.899984741210936,38.6C51.799984741210935,35.4,49.19998474121094,32.8,45.99998474121094,32.8ZM16.999984741210938,40.8C16.399984741210936,41.4,15.699984741210937,41.7,14.799984741210938,41.7C13.899984741210938,41.7,13.199984741210937,41.4,12.599984741210937,40.8C11.999984741210938,40.2,11.699984741210937,39.5,11.699984741210937,38.6C11.699984741210937,37.7,11.999984741210938,37,12.599984741210937,36.4C13.199984741210937,35.8,13.899984741210938,35.5,14.799984741210938,35.5C16.499984741210938,35.5,17.899984741210936,36.9,17.899984741210936,38.6C17.899984741210936,39.4,17.59998474121094,40.2,16.999984741210938,40.8ZM27.299984741210938,11.8C27.299984741210938,10.9,27.59998474121094,10.2,28.199984741210937,9.6C28.799984741210938,9,29.499984741210938,8.7,30.399984741210936,8.7C31.299984741210938,8.7,31.999984741210938,9,32.59998474121094,9.6C33.19998474121094,10.2,33.49998474121094,10.9,33.49998474121094,11.8C33.49998474121094,12.7,33.19998474121094,13.4,32.59998474121094,14C31.999984741210938,14.6,31.299984741210938,14.9,30.399984741210936,14.9C28.699984741210937,14.9,27.299984741210938,13.5,27.299984741210938,11.8ZM48.19998474121094,40.8C47.59998474121094,41.4,46.899984741210936,41.7,45.99998474121094,41.7C44.299984741210935,41.7,42.899984741210936,40.3,42.899984741210936,38.6C42.899984741210936,36.9,44.299984741210935,35.5,45.99998474121094,35.5C47.69998474121094,35.5,49.09998474121094,36.9,49.09998474121094,38.6C49.09998474121094,39.4,48.799984741210935,40.2,48.19998474121094,40.8Z" fill="url(#master_svg4_sa656_021957)" fill-opacity="1"/></g><g><path d="M45.99998550415039,26.499999618530275C49.19998550415039,26.499999618530275,51.79998550415039,23.899999618530273,51.79998550415039,20.699999618530274C51.79998550415039,17.499999618530275,49.19998550415039,14.899999618530273,45.99998550415039,14.899999618530273C42.79998550415039,14.899999618530273,40.19998550415039,17.499999618530275,40.19998550415039,20.699999618530274C40.19998550415039,23.899999618530273,42.79998550415039,26.499999618530275,45.99998550415039,26.499999618530275ZM45.99998550415039,17.599999618530273C47.69998550415039,17.599999618530273,49.09998550415039,18.999999618530275,49.09998550415039,20.699999618530274C49.09998550415039,22.399999618530273,47.69998550415039,23.799999618530272,45.99998550415039,23.799999618530272C44.29998550415039,23.799999618530272,42.89998550415039,22.399999618530273,42.89998550415039,20.699999618530274C42.89998550415039,18.999999618530275,44.29998550415039,17.599999618530273,45.99998550415039,17.599999618530273Z" fill="url(#master_svg5_sa656_021958)" fill-opacity="1"/></g></g></g></g></g></g></svg>