<svg xmlns="http://www.w3.org/2000/svg" xmlns:xlink="http://www.w3.org/1999/xlink" fill="none" version="1.1" width="60" height="60" viewBox="0 0 60 60"><defs><clipPath id="master_svg0_944_001278"><rect x="0" y="0" width="60" height="60" rx="0"/></clipPath><linearGradient x1="-0.041762977838516235" y1="0.6596759557723999" x2="0.9170105457305908" y2="0.4408941864967346" id="master_svg1_sa461_40430"><stop offset="0%" stop-color="#3380F2" stop-opacity="1"/><stop offset="54.00000214576721%" stop-color="#5B8FF3" stop-opacity="1"/><stop offset="100%" stop-color="#F886A1" stop-opacity="1"/></linearGradient><mask id="master_svg2_944_001283"><g><path d="M30.000021936798095,6C34.7331219367981,6.000000476837,38.5700219367981,9.83692,38.5700219367981,14.57L38.5700219367981,14.72L38.78002193679809,14.82C45.986221936798096,18.2138,50.5837219367981,25.4646,50.5800219367981,33.43C50.569021936798094,35.0336,50.37442193679809,36.630700000000004,50.0000219367981,38.19C54.320121936798095,40.8753,55.364021936798096,46.7107,52.2427219367981,50.7272C49.12142193679809,54.7437,43.209021936798095,55.1732,39.5400219367981,51.65L39.9400219367981,51.44C33.89382193679809,54.773,26.579921936798097,54.8556,20.460021936798096,51.66C16.779121936798095,55.1248,10.914381936798096,54.6673,7.815361936798096,50.6735C4.716341936798096,46.6797,5.729596936798096,40.8851,10.000001936798096,38.18L10.150001936798095,38.79C7.5335219367980955,29.0891,12.300791936798095,18.9164,21.430021936798095,14.72L21.430021936798095,14.57C21.430021936798095,9.83692,25.266921936798095,6.000000953674,30.000021936798095,6ZM45.4300219367981,40.29C42.59122193679809,40.29,40.2900219367981,42.5913,40.2900219367981,45.43C40.2900219367981,48.2687,42.59122193679809,50.57,45.4300219367981,50.57C48.268721936798094,50.57,50.5700219367981,48.2687,50.5700219367981,45.43C50.5700219367981,42.5913,48.268721936798094,40.29,45.4300219367981,40.29ZM14.570001936798096,40.29C11.731251936798095,40.29,9.430001936798096,42.5913,9.430001936798096,45.43C9.430001936798096,48.2687,11.731251936798095,50.57,14.570001936798096,50.57C17.408721936798095,50.57,19.710021936798096,48.2687,19.710021936798096,45.43C19.710021936798096,42.5913,17.408721936798095,40.29,14.570001936798096,40.29ZM37.7900219367981,18.15L37.730021936798096,18.27C36.2921219367981,21.2635,33.255921936798096,23.1584,29.935121936798097,23.1349C26.614321936798095,23.1113,23.605321936798095,21.1736,22.210021936798096,18.16C16.469521936798095,21.086399999999998,12.856741936798095,26.9866,12.860001936798096,33.43C12.856291936798096,34.6292,12.976941936798095,35.8256,13.220001936798095,37C13.665781936798096,36.9229,14.117611936798095,36.885999999999996,14.570001936798096,36.89C19.305321936798094,36.8845,23.145521936798097,40.7246,23.140021936798096,45.46C23.139221936798094,46.6248,22.904621936798097,47.7776,22.450021936798095,48.85L21.630021936798094,48.42C26.548421936798096,51.1663,32.5006219367981,51.327,37.560021936798094,48.85C36.3469219367981,45.9804,36.7806219367981,42.6792,38.693821936798095,40.2203C40.606921936798095,37.761399999999995,43.7003219367981,36.5295,46.78002193679809,37C48.3523219367981,29.4194,44.6693219367981,21.721899999999998,37.78002193679809,18.189999999999998L37.7900219367981,18.15ZM30.000021936798095,9.43C27.161221936798096,9.43,24.860021936798095,11.731259999999999,24.860021936798095,14.57C24.860021936798095,17.4087,27.161221936798096,19.71,30.000021936798095,19.71C32.838721936798095,19.71,35.14002193679809,17.4087,35.14002193679809,14.57C35.14002193679809,11.731259999999999,32.838721936798095,9.43,30.000021936798095,9.43Z" fill="#FFFFFF" fill-opacity="1"/></g></mask><linearGradient x1="-0.0835682675242424" y1="0.6331050992012024" x2="1.0835682153701782" y2="0.3668948709964752" id="master_svg3_sa461_40427"><stop offset="0%" stop-color="#3380F2" stop-opacity="1"/><stop offset="54.00000214576721%" stop-color="#5B8FF3" stop-opacity="1"/><stop offset="100%" stop-color="#F886A1" stop-opacity="1"/></linearGradient></defs><g><g clip-path="url(#master_svg0_944_001278)"><g><g><path d="M30.000021936798095,6C34.7331219367981,6.000000476837,38.5700219367981,9.83692,38.5700219367981,14.57L38.5700219367981,14.72L38.78002193679809,14.82C45.986221936798096,18.2138,50.5837219367981,25.4646,50.5800219367981,33.43C50.569021936798094,35.0336,50.37442193679809,36.630700000000004,50.0000219367981,38.19C54.320121936798095,40.8753,55.364021936798096,46.7107,52.2427219367981,50.7272C49.12142193679809,54.7437,43.209021936798095,55.1732,39.5400219367981,51.65L39.9400219367981,51.44C33.89382193679809,54.773,26.579921936798097,54.8556,20.460021936798096,51.66C16.779121936798095,55.1248,10.914381936798096,54.6673,7.815361936798096,50.6735C4.716341936798096,46.6797,5.729596936798096,40.8851,10.000001936798096,38.18L10.150001936798095,38.79C7.5335219367980955,29.0891,12.300791936798095,18.9164,21.430021936798095,14.72L21.430021936798095,14.57C21.430021936798095,9.83692,25.266921936798095,6.000000953674,30.000021936798095,6ZM45.4300219367981,40.29C42.59122193679809,40.29,40.2900219367981,42.5913,40.2900219367981,45.43C40.2900219367981,48.2687,42.59122193679809,50.57,45.4300219367981,50.57C48.268721936798094,50.57,50.5700219367981,48.2687,50.5700219367981,45.43C50.5700219367981,42.5913,48.268721936798094,40.29,45.4300219367981,40.29ZM14.570001936798096,40.29C11.731251936798095,40.29,9.430001936798096,42.5913,9.430001936798096,45.43C9.430001936798096,48.2687,11.731251936798095,50.57,14.570001936798096,50.57C17.408721936798095,50.57,19.710021936798096,48.2687,19.710021936798096,45.43C19.710021936798096,42.5913,17.408721936798095,40.29,14.570001936798096,40.29ZM37.7900219367981,18.15L37.730021936798096,18.27C36.2921219367981,21.2635,33.255921936798096,23.1584,29.935121936798097,23.1349C26.614321936798095,23.1113,23.605321936798095,21.1736,22.210021936798096,18.16C16.469521936798095,21.086399999999998,12.856741936798095,26.9866,12.860001936798096,33.43C12.856291936798096,34.6292,12.976941936798095,35.8256,13.220001936798095,37C13.665781936798096,36.9229,14.117611936798095,36.885999999999996,14.570001936798096,36.89C19.305321936798094,36.8845,23.145521936798097,40.7246,23.140021936798096,45.46C23.139221936798094,46.6248,22.904621936798097,47.7776,22.450021936798095,48.85L21.630021936798094,48.42C26.548421936798096,51.1663,32.5006219367981,51.327,37.560021936798094,48.85C36.3469219367981,45.9804,36.7806219367981,42.6792,38.693821936798095,40.2203C40.606921936798095,37.761399999999995,43.7003219367981,36.5295,46.78002193679809,37C48.3523219367981,29.4194,44.6693219367981,21.721899999999998,37.78002193679809,18.189999999999998L37.7900219367981,18.15ZM30.000021936798095,9.43C27.161221936798096,9.43,24.860021936798095,11.731259999999999,24.860021936798095,14.57C24.860021936798095,17.4087,27.161221936798096,19.71,30.000021936798095,19.71C32.838721936798095,19.71,35.14002193679809,17.4087,35.14002193679809,14.57C35.14002193679809,11.731259999999999,32.838721936798095,9.43,30.000021936798095,9.43Z" fill="url(#master_svg1_sa461_40430)" fill-opacity="1"/></g><g><g mask="url(#master_svg2_944_001283)"><g><rect x="5.170000076293945" y="5.170000076293945" width="49.65999984741211" height="49.65999984741211" rx="0" fill="url(#master_svg3_sa461_40427)" fill-opacity="1"/></g></g></g></g></g></g></svg>