<svg xmlns="http://www.w3.org/2000/svg" xmlns:xlink="http://www.w3.org/1999/xlink" fill="none" version="1.1" width="60" height="60" viewBox="0 0 60 60"><defs><clipPath id="master_svg0_944_001362"><rect x="0" y="0" width="60" height="60" rx="0"/></clipPath><clipPath id="master_svg1_944_001363"><rect x="6.400000095367432" y="7.75" width="47.20000076293945" height="44.5" rx="0"/></clipPath><linearGradient x1="-0.030959248542785645" y1="0.36104896664619446" x2="0.9526990652084351" y2="0.6030776500701904" id="master_svg2_sa656_021953"><stop offset="0%" stop-color="#3380F2" stop-opacity="1"/><stop offset="53.64999771118164%" stop-color="#5B8FF3" stop-opacity="1"/><stop offset="100%" stop-color="#F886A1" stop-opacity="1"/></linearGradient><linearGradient x1="-0.0805753692984581" y1="0.40108558535575867" x2="1.0480806827545166" y2="0.6741306185722351" id="master_svg3_sa656_021954"><stop offset="0%" stop-color="#3380F2" stop-opacity="1"/><stop offset="53.64999771118164%" stop-color="#5B8FF3" stop-opacity="1"/><stop offset="100%" stop-color="#F886A1" stop-opacity="1"/></linearGradient></defs><g><g clip-path="url(#master_svg0_944_001362)"><g clip-path="url(#master_svg1_944_001363)"><g><g><path d="M25.799999904632568,44.849958628845215C26.299999904632568,44.849958628845215,26.59999990463257,45.249958628845214,26.59999990463257,45.64995862884521L26.59999990463257,48.349958628845215C26.59999990463257,48.849958628845215,26.19999990463257,49.14995862884521,25.799999904632568,49.14995862884521C25.299999904632568,49.14995862884521,24.999999904632567,48.749958628845214,24.999999904632567,48.349958628845215L24.999999904632567,45.64995862884521C24.999999904632567,45.249958628845214,25.299999904632568,44.849958628845215,25.799999904632568,44.849958628845215ZM31.799999904632568,44.849958628845215C32.29999990463257,44.849958628845215,32.59999990463257,45.249958628845214,32.59999990463257,45.64995862884521L32.59999990463257,48.349958628845215C32.59999990463257,48.849958628845215,32.19999990463257,49.14995862884521,31.799999904632568,49.14995862884521C31.299999904632568,49.14995862884521,30.999999904632567,48.749958628845214,30.999999904632567,48.349958628845215L30.999999904632567,45.64995862884521C30.999999904632567,45.249958628845214,31.299999904632568,44.849958628845215,31.799999904632568,44.849958628845215ZM15.699999904632568,31.649958628845216L19.09999990463257,31.649958628845216C19.69999990463257,31.649958628845216,20.09999990463257,32.04995862884522,20.09999990463257,32.64995862884521L20.09999990463257,33.949958628845216C20.09999990463257,34.54995862884522,19.69999990463257,34.949958628845216,19.09999990463257,34.949958628845216L15.699999904632568,34.949958628845216C15.099999904632568,34.949958628845216,14.699999904632568,34.54995862884522,14.699999904632568,33.949958628845216L14.699999904632568,32.64995862884521C14.699999904632568,32.04995862884522,15.099999904632568,31.649958628845216,15.699999904632568,31.649958628845216ZM15.599999904632568,24.749998628845216L19.09999990463257,24.749998628845216C19.59999990463257,24.749998628845216,20.09999990463257,25.149998628845214,20.09999990463257,25.749998628845216L20.09999990463257,27.049998628845216C20.09999990463257,27.549998628845216,19.69999990463257,28.049998628845216,19.09999990463257,28.049998628845216L15.599999904632568,28.049998628845216C15.099999904632568,28.049998628845216,14.599999904632568,27.649998628845214,14.599999904632568,27.049998628845216L14.599999904632568,25.749998628845216C14.699999904632568,25.249998628845216,15.099999904632568,24.749998628845216,15.599999904632568,24.749998628845216ZM36.09999990463257,40.249958628845214C29.999999904632567,40.249958628845214,25.09999990463257,34.949958628845216,25.799999904632568,28.749998628845216C26.299999904632568,24.049998628845216,30.19999990463257,20.149999628845215,34.899999904632566,19.649999628845215C41.19999990463257,18.949999628845216,46.49999990463257,23.849998628845213,46.49999990463257,29.949958628845216C46.49999990463257,32.749958628845214,45.399999904632566,35.349958628845215,43.49999990463257,37.349958628845215C41.49999990463257,39.14995862884521,38.79999990463257,40.249958628845214,36.09999990463257,40.249958628845214ZM36.09999990463257,22.749998628845216C32.09999990463257,22.749998628845216,28.89999990463257,25.949998628845215,28.999999904632567,29.949958628845216C28.999999904632567,33.749958628845214,32.19999990463257,36.949958628845216,35.99999990463257,36.949958628845216C39.99999990463257,37.04995862884522,43.19999990463257,33.849958628845215,43.19999990463257,29.849958628845215C43.19999990463257,27.949998628845215,42.49999990463257,26.149998628845214,41.09999990463257,24.849998628845213C39.79999990463257,23.449998628845215,37.99999990463257,22.749998628845216,36.09999990463257,22.749998628845216Z" fill="url(#master_svg2_sa656_021953)" fill-opacity="1"/></g><g><path d="M9.700000095367432,10.05L9.700000095367432,9.05C9.700000095367432,8.35,9.100000095367431,7.75,8.400000095367432,7.75L7.7000000953674315,7.75C7.000000095367431,7.75,6.400000095367432,8.35,6.400000095367432,9.05L6.400000095367432,50.85C6.400000095367432,51.55,7.000000095367431,52.15,7.7000000953674315,52.15L8.400000095367432,52.15C9.100000095367431,52.15,9.700000095367432,51.55,9.700000095367432,50.85L9.700000095367432,49.35C9.700000095367432,48.65,10.300000095367432,48.05,11.000000095367431,48.05L15.500000095367431,48.05C16.200000095367432,48.05,16.80000009536743,48.65,16.80000009536743,49.35L16.80000009536743,50.85C16.80000009536743,51.55,17.40000009536743,52.15,18.10000009536743,52.15L39.70000009536743,52.15C40.40000009536743,52.15,41.00000009536743,51.55,41.00000009536743,50.85L41.00000009536743,49.35C41.00000009536743,48.65,41.600000095367434,48.05,42.30000009536743,48.05L52.20000009536743,48.05C52.90000009536743,48.05,53.50000009536743,47.45,53.50000009536743,46.75L53.50000009536743,12.75C53.50000009536743,12.05,52.90000009536743,11.45,52.20000009536743,11.45L11.000000095367431,11.45C10.300000095367432,11.45,9.700000095367432,10.85,9.700000095367432,10.05ZM49.100000095367434,44.85L39.20000009536743,44.85C38.50000009536743,44.85,37.90000009536743,45.45,37.90000009536743,46.15L37.90000009536743,47.65C37.90000009536743,48.35,37.30000009536743,48.95,36.600000095367434,48.95L21.40000009536743,48.95C20.700000095367432,48.95,20.10000009536743,48.35,20.10000009536743,47.65L20.10000009536743,46.15C20.10000009536743,45.45,19.500000095367433,44.85,18.80000009536743,44.85L11.000000095367431,44.85C10.300000095367432,44.85,9.700000095367432,44.25,9.700000095367432,43.55L9.700000095367432,16.05C9.700000095367432,15.35,10.300000095367432,14.75,11.000000095367431,14.75L49.100000095367434,14.75C49.80000009536743,14.75,50.40000009536743,15.35,50.40000009536743,16.05L50.40000009536743,43.55C50.40000009536743,44.25,49.80000009536743,44.85,49.100000095367434,44.85Z" fill="url(#master_svg3_sa656_021954)" fill-opacity="1"/></g></g></g></g></g></svg>