<svg xmlns="http://www.w3.org/2000/svg" xmlns:xlink="http://www.w3.org/1999/xlink" fill="none" version="1.1" width="60" height="60" viewBox="0 0 60 60"><defs><clipPath id="master_svg0_944_001296"><rect x="0" y="0" width="60" height="60" rx="0"/></clipPath><linearGradient x1="-8.881784197001252e-16" y1="-3.3306690738754696e-16" x2="1.335062026977539" y2="0.7281359434127808" id="master_svg1_432_39110"><stop offset="0%" stop-color="#3380F2" stop-opacity="1"/><stop offset="53.64580154418945%" stop-color="#5B8FF3" stop-opacity="1"/><stop offset="100%" stop-color="#F886A1" stop-opacity="1"/></linearGradient><linearGradient x1="-8.881784197001252e-16" y1="-3.3306690738754696e-16" x2="1.1871169805526733" y2="0.7415019869804382" id="master_svg2_432_39113"><stop offset="0%" stop-color="#3380F2" stop-opacity="1"/><stop offset="53.64580154418945%" stop-color="#5B8FF3" stop-opacity="1"/><stop offset="100%" stop-color="#F886A1" stop-opacity="1"/></linearGradient><linearGradient x1="1.6653345369377348e-16" y1="-1.3877787807814457e-16" x2="1.3391343355178833" y2="0.30539470911026" id="master_svg3_432_39107"><stop offset="0%" stop-color="#3380F2" stop-opacity="1"/><stop offset="53.64580154418945%" stop-color="#5B8FF3" stop-opacity="1"/><stop offset="100%" stop-color="#F886A1" stop-opacity="1"/></linearGradient><linearGradient x1="2.220446049250313e-16" y1="0" x2="0.15101297199726105" y2="4.6834306716918945" id="master_svg4_432_39104"><stop offset="0%" stop-color="#3380F2" stop-opacity="1"/><stop offset="53.64580154418945%" stop-color="#5B8FF3" stop-opacity="1"/><stop offset="100%" stop-color="#F886A1" stop-opacity="1"/></linearGradient><linearGradient x1="1" y1="8.881784197001252e-16" x2="-1.4528485536575317" y2="0.6651369333267212" id="master_svg5_432_39101"><stop offset="0%" stop-color="#3380F2" stop-opacity="1"/><stop offset="53.64580154418945%" stop-color="#5B8FF3" stop-opacity="1"/><stop offset="100%" stop-color="#F886A1" stop-opacity="1"/></linearGradient></defs><g><g clip-path="url(#master_svg0_944_001296)"><g style="opacity:0.20000000298023224;"><path d="M13.484399795532227,6.5L46.26549979553223,6.5L46.26549979553223,22.7775C46.26549979553223,25.2747,44.24109979553222,27.299,41.74389979553223,27.299L18.005899795532226,27.299C15.508699795532227,27.299,13.484399795532227,25.2747,13.484399795532227,22.7775L13.484399795532227,6.5Z" fill="url(#master_svg1_432_39110)" fill-opacity="1"/></g><g><path d="M44.004699795532225,8.76077L15.745099795532226,8.76077L15.745099795532226,22.7775C15.745099795532226,24.0261,16.757299795532226,25.0383,18.005899795532226,25.0383L41.74389979553223,25.0383C42.992499795532225,25.0383,44.004699795532225,24.0261,44.004699795532225,22.7775L44.004699795532225,8.76077ZM13.484399795532227,6.5L13.484399795532227,22.7775C13.484399795532227,25.2747,15.508699795532227,27.299,18.005899795532226,27.299L41.74389979553223,27.299C44.24109979553222,27.299,46.26549979553223,25.2747,46.26549979553223,22.7775L46.26549979553223,6.5L13.484399795532227,6.5Z" fill-rule="evenodd" fill="url(#master_svg2_432_39113)" fill-opacity="1"/></g><g><path d="M48.9785,9.21292L10.7715,9.21292C9.77266,9.21292,8.96292,10.0227,8.96292,11.0215L8.96292,49.2285C8.96292,50.2273,9.77266,51.0371,10.7715,51.0371L48.9785,51.0371C49.9773,51.0371,50.7871,50.2273,50.7871,49.2285L50.7871,11.0215C50.7871,10.0227,49.9773,9.21292,48.9785,9.21292ZM10.7715,6.5C8.27436,6.5,6.25,8.52436,6.25,11.0215L6.25,49.2285C6.25,51.7256,8.27436,53.75,10.7715,53.75L48.9785,53.75C51.4756,53.75,53.5,51.7256,53.5,49.2285L53.5,11.0215C53.5,8.52436,51.4756,6.5,48.9785,6.5L10.7715,6.5Z" fill-rule="evenodd" fill="url(#master_svg3_432_39107)" fill-opacity="1"/></g><g><path d="M16.875499725341797,43.35059958496094C16.875499725341797,42.72629958496094,17.381599725341797,42.22019958496094,18.0058997253418,42.22019958496094L41.96999972534179,42.22019958496094C42.5942997253418,42.22019958496094,43.1003997253418,42.72629958496094,43.1003997253418,43.35059958496094C43.1003997253418,43.97489958496094,42.5942997253418,44.48099958496094,41.96999972534179,44.48099958496094L18.0058997253418,44.48099958496094C17.381599725341797,44.48099958496094,16.875499725341797,43.97489958496094,16.875499725341797,43.35059958496094Z" fill-rule="evenodd" fill="url(#master_svg4_432_39104)" fill-opacity="1"/></g><g><path d="M38.57909995117188,12.377900123596191C39.203399951171875,12.377900123596191,39.70949995117188,12.884000123596191,39.70949995117188,13.508300123596191L39.70949995117188,20.290600123596192C39.70949995117188,20.91490012359619,39.203399951171875,21.421000123596194,38.57909995117188,21.421000123596194C37.95479995117188,21.421000123596194,37.448699951171875,20.91490012359619,37.448699951171875,20.290600123596192L37.448699951171875,13.508300123596191C37.448699951171875,12.884000123596191,37.95479995117188,12.377900123596191,38.57909995117188,12.377900123596191Z" fill-rule="evenodd" fill="url(#master_svg5_432_39101)" fill-opacity="1"/></g></g></g></svg>