<svg xmlns="http://www.w3.org/2000/svg" xmlns:xlink="http://www.w3.org/1999/xlink" fill="none" version="1.1" width="60" height="60" viewBox="0 0 60 60"><defs><clipPath id="master_svg0_944_001252"><rect x="0" y="0" width="60" height="60" rx="0"/></clipPath><linearGradient x1="-0.17775772511959076" y1="0.6424530744552612" x2="1.462891936302185" y2="0.355663537979126" id="master_svg1_sa461_40513"><stop offset="0%" stop-color="#3380F2" stop-opacity="1"/><stop offset="54.00000214576721%" stop-color="#5B8FF3" stop-opacity="1"/><stop offset="100%" stop-color="#F886A1" stop-opacity="1"/></linearGradient><linearGradient x1="0.4297647774219513" y1="-3.269911527633667" x2="0.5693559050559998" y2="4.238937854766846" id="master_svg2_sa461_40510"><stop offset="0%" stop-color="#3380F2" stop-opacity="1"/><stop offset="54.00000214576721%" stop-color="#5B8FF3" stop-opacity="1"/><stop offset="100%" stop-color="#F886A1" stop-opacity="1"/></linearGradient><linearGradient x1="-0.08356251567602158" y1="0.36698412895202637" x2="1.2549185752868652" y2="0.6723809242248535" id="master_svg3_sa461_40497"><stop offset="0%" stop-color="#3380F2" stop-opacity="1"/><stop offset="54.00000214576721%" stop-color="#5B8FF3" stop-opacity="1"/><stop offset="100%" stop-color="#F886A1" stop-opacity="1"/></linearGradient><linearGradient x1="-0.009380863048136234" y1="0.5041949152946472" x2="1" y2="0.5041949152946472" id="master_svg4_sa461_40485"><stop offset="0%" stop-color="#3380F2" stop-opacity="1"/><stop offset="54.00000214576721%" stop-color="#5B8FF3" stop-opacity="1"/><stop offset="100%" stop-color="#F886A1" stop-opacity="1"/></linearGradient><linearGradient x1="1.7763568394002505e-15" y1="0.5" x2="1.0048309564590454" y2="0.5" id="master_svg5_sa461_40488"><stop offset="0%" stop-color="#3380F2" stop-opacity="1"/><stop offset="54.00000214576721%" stop-color="#5B8FF3" stop-opacity="1"/><stop offset="100%" stop-color="#F886A1" stop-opacity="1"/></linearGradient><linearGradient x1="1.7763568394002505e-15" y1="0.49525296688079834" x2="0.9998637437820435" y2="0.49525296688079834" id="master_svg6_sa461_40491"><stop offset="0%" stop-color="#3380F2" stop-opacity="1"/><stop offset="54.00000214576721%" stop-color="#5B8FF3" stop-opacity="1"/><stop offset="100%" stop-color="#F886A1" stop-opacity="1"/></linearGradient><linearGradient x1="0.0034722222480922937" y1="0.4997115135192871" x2="1.0104166269302368" y2="0.4997115135192871" id="master_svg7_sa461_40494"><stop offset="0%" stop-color="#3380F2" stop-opacity="1"/><stop offset="54.00000214576721%" stop-color="#5B8FF3" stop-opacity="1"/><stop offset="100%" stop-color="#F886A1" stop-opacity="1"/></linearGradient><linearGradient x1="0.12443121522665024" y1="1.027944564819336" x2="0.8737676739692688" y2="-0.1742449402809143" id="master_svg8_sa461_40506"><stop offset="0%" stop-color="#3380F2" stop-opacity="1"/><stop offset="54.00000214576721%" stop-color="#5B8FF3" stop-opacity="1"/><stop offset="100%" stop-color="#F886A1" stop-opacity="1"/></linearGradient><mask id="master_svg9_944_001265"><g><path d="M35.91004122314453,38.99999664306641C36.16124122314453,39.560936643066405,36.79824122314453,39.83829664306641,37.38004122314453,39.639996643066404L42.220041223144534,37.639996643066404C42.61954122314453,37.46083664306641,42.88844122314453,37.076736643066404,42.92004122314453,36.639996643066404C42.90934122314453,36.20786664306641,42.65314122314453,35.81965664306641,42.260041223144526,35.639996643066404L37.510041223144526,33.459998643066406C37.36854122314453,33.391155643066405,37.21634122314453,33.347179643066404,37.06004122314453,33.329997643066406C36.60604122314453,33.326648643066406,36.19174122314453,33.588466643066404,36.000041223144535,33.9999966430664C35.76164122314453,34.566196643066405,36.01924122314453,35.2191266430664,36.58004122314453,35.46999664306641L39.000041223144535,36.519996643066406L36.62004122314453,37.519996643066406C36.01894122314453,37.73669664306641,35.70284122314453,38.395556643066406,35.91004122314453,38.99999664306641ZM28.400041223144534,42.15999664306641C28.98274122314453,42.35793664306641,29.615341223144533,42.043896643066404,29.81004122314453,41.459996643066404L32.250041223144535,33.9999966430664C32.43594122314453,33.41257464306641,32.12154122314453,32.783683643066404,31.54004122314453,32.580001843066405C31.43804122314453,32.54004284306641,31.32954122314453,32.519687653066406,31.22004122314453,32.52000045776641C30.73944122314453,32.547386143066404,30.31644122314453,32.84619564306641,30.13004122314453,33.290000643066406L27.690041223144533,40.74000664306641C27.486241223144532,41.328706643066404,27.80684122314453,41.96976664306641,28.400041223144534,42.15999664306641ZM17.46999922314453,37.669996643066405L22.290001223144532,39.669996643066405C22.87542122314453,39.901956643066406,23.538041223144532,39.6154166430664,23.770001223144533,39.03000664306641C24.00196122314453,38.444576643066405,23.71542122314453,37.781966643066404,23.130001223144532,37.54999664306641L20.75000122314453,36.54999664306641L23.130001223144532,35.459996643066404C23.68533122314453,35.20929664306641,23.94190122314453,34.563446643066406,23.71000122314453,33.9999966430664C23.51937122314453,33.61932664306641,23.13552122314453,33.37366064306641,22.71000122314453,33.36000064306641C22.54915122314453,33.346858643066405,22.38906122314453,33.393108643066405,22.26000122314453,33.49000164306641L17.49999822314453,35.67000664306641C17.11622422314453,35.85717664306641,16.86922262314453,36.24311664306641,16.85999870314453,36.67000664306641C16.82640072314453,37.10000664306641,17.072288223144533,37.50309664306641,17.46999922314453,37.669996643066405Z" fill="#FFFFFF" fill-opacity="1"/></g></mask><linearGradient x1="0.04204753041267395" y1="1.1761517524719238" x2="0.9572212100028992" y2="-0.17434507608413696" id="master_svga_sa461_40503"><stop offset="0%" stop-color="#3380F2" stop-opacity="1"/><stop offset="54.00000214576721%" stop-color="#5B8FF3" stop-opacity="1"/><stop offset="100%" stop-color="#F886A1" stop-opacity="1"/></linearGradient></defs><g><g clip-path="url(#master_svg0_944_001252)"><g style="opacity:0.20000000298023224;"><path d="M13,21.42000047683716L47.33,21.42000047683716C50.09,21.42000047683716,52.33,20.24000047683716,52.33,18.78000047683716L52.33,12.390000476837159C52.33,9.140000476837159,47.33,6.500000476837158,41.23,6.500000476837158L19.09,6.500000476837158C13,6.500000000000158,8,9.140000476837159,8,12.390000476837159L8,18.78000047683716C8,20.24000047683716,10.21,21.42000047683716,13,21.42000047683716Z" fill="url(#master_svg1_sa461_40513)" fill-opacity="1"/></g><g><path d="M6.869999885559082,21.000000839233397C6.869999885559082,20.379998839233398,7.749999885559082,19.8700008392334,8.869999885559082,19.8700008392334L50.359999885559084,19.8700008392334C51.43999988555908,19.8700008392334,52.359999885559084,20.3800008392334,52.359999885559084,21.000000839233397C52.359999885559084,21.6200008392334,51.47999988555908,22.130000839233396,50.359999885559084,22.130000839233396L8.829999885559083,22.130000839233396C7.749999885559082,22.090000839233397,6.869999885559082,21.590000839233397,6.869999885559082,21.000000839233397Z" fill-rule="evenodd" fill="url(#master_svg2_sa461_40510)" fill-opacity="1"/></g><g><path d="M49,9.21L10.77,9.21C9.79374,9.23152,9.01055,10.02356,9,11L9,49.23C9.021180000000001,50.1986,9.801359999999999,50.9788,10.77,51L49,51C49.9996,51,50.81,50.1896,50.81,49.19L50.81,11C50.7991,10.00824,49.9919,9.21,49,9.21ZM10.77,6.5C8.28146,6.4999747276,6.2610111,8.51149,6.25,11L6.25,49.23C6.249999523163,51.7263,8.27367,53.75,10.77,53.75L49,53.75C51.4963,53.75,53.52,51.7263,53.52,49.23L53.52,11C53.509,8.51151,51.4886,6.5,49,6.5L10.77,6.5Z" fill-rule="evenodd" fill="url(#master_svg3_sa461_40497)" fill-opacity="1"/></g><g><g><path d="M15.349999961853028,11.750000001459961C15.904349961853027,11.720112771459961,16.45296996185303,11.87485087145996,16.90999996185303,12.18999987145996C17.322319961853026,12.53898887145996,17.54794996185303,13.060538871459961,17.519999961853028,13.599998871459961C17.51950996185303,13.916768871459961,17.425589961853028,14.226358871459961,17.249999961853028,14.48999887145996C17.05535996185303,14.77367887145996,16.763719961853027,14.97639887145996,16.429999961853028,15.05999887145996C16.970359961853028,15.168278871459961,17.361899961853027,15.63895887145996,17.369999961853026,16.189998871459963L17.47999996185303,17.189998871459963C17.49905996185303,17.54159887145996,17.63650996185303,17.87641887145996,17.869999961853026,18.139998871459962L16.719999961853027,18.139998871459962C16.554109961853026,17.88964887145996,16.457489961853028,17.59981887145996,16.439999961853026,17.299998871459962L16.359999961853028,16.50999887145996C16.355919961853026,16.22475887145996,16.241179961853028,15.952248871459961,16.039999961853027,15.749998871459962C15.798939961853026,15.57821887145996,15.505089961853027,15.49678887145996,15.209999961853027,15.519998871459961L13.539999961853027,15.519998871459961L13.539999961853027,18.139998871459962L12.539999961853027,18.139998871459962L12.539999961853027,11.750000001459961L15.349999961853028,11.750000001459961ZM13.539999961853027,14.659998871459962L15.209999961853027,14.659998871459962C15.546669961853027,14.680418871459961,15.880649961853027,14.58900887145996,16.15999996185303,14.39999887145996C16.359989961853028,14.19920887145996,16.465399961853027,13.92297887145996,16.449999961853027,13.63999887145996C16.476599961853026,13.358308871459961,16.369189961853028,13.080518871459962,16.15999996185303,12.88999887145996C15.880439961853028,12.702953871459961,15.544859961853028,12.618177871459961,15.209999961853027,12.649999871459961L13.539999961853027,12.649999871459961L13.539999961853027,14.659998871459962Z" fill="url(#master_svg4_sa461_40485)" fill-opacity="1"/></g><g><path d="M19.70000198364258,13.529999732971191L19.70000198364258,16.35999973297119C19.672271983642577,16.65550973297119,19.75413198364258,16.95090973297119,19.93000198364258,17.18999973297119C20.14070198364258,17.38448973297119,20.42475198364258,17.47916973297119,20.710001983642577,17.449999732971193C20.95490198364258,17.436319732971192,21.18623198364258,17.33310973297119,21.36000198364258,17.15999973297119C21.57698198364258,16.940909732971193,21.732221983642578,16.668379732971193,21.81000198364258,16.36999973297119L21.81000198364258,13.529999732971191L22.81000198364258,13.529999732971191L22.81000198364258,18.17999973297119L21.81000198364258,18.17999973297119L21.81000198364258,17.579999732971192C21.46380198364258,18.03769973297119,20.923881983642577,18.307659732971192,20.350001983642578,18.309999732971193Q18.670001983642578,18.309999732971193,18.670001983642578,16.419999732971192L18.670001983642578,13.529999732971191L19.70000198364258,13.529999732971191Z" fill="url(#master_svg5_sa461_40488)" fill-opacity="1"/></g><g><path d="M27.679999389648437,14.879997911071777L26.679999389648437,14.879997911071777C26.63265938964844,14.679517911071777,26.51571938964844,14.502347911071777,26.34999938964844,14.379999911071778C26.134129389648436,14.269430911071778,25.891789389648437,14.220964911071777,25.649999389648436,14.239999911071777C25.440609389648436,14.223990911071777,25.23060938964844,14.261860911071777,25.039999389648436,14.349999911071777C24.88808938964844,14.419047911071777,24.793179389648436,14.573277911071777,24.799999389648438,14.739997911071777C24.799999389648438,14.879997911071777,24.91999938964844,15.019997911071778,25.16999938964844,15.129997911071777C25.41999938964844,15.239997911071777,25.629999389648436,15.279997911071778,26.09999938964844,15.399997911071777C26.512509389648436,15.477907911071778,26.908379389648438,15.626787911071776,27.269999389648437,15.839997911071777C27.627629389648437,16.043727911071777,27.843169389648438,16.42862791107178,27.82999938964844,16.839997911071777C27.82999938964844,17.839997911071777,27.12999938964844,18.32999791107178,25.729999389648437,18.32999791107178C24.330000389648436,18.32999791107178,23.729999589648436,17.779997911071778,23.639999389648438,16.689997911071778L24.639999389648438,16.689997911071778C24.666449389648438,16.931947911071777,24.780219389648437,17.155937911071778,24.959999389648438,17.319997911071777C25.179969389648438,17.450617911071777,25.434959389648437,17.50998791107178,25.689999389648438,17.489997911071775C26.41999938964844,17.489997911071775,26.769999389648437,17.289997911071776,26.769999389648437,16.909997911071777C26.769999389648437,16.699997911071776,26.639999389648438,16.529997911071778,26.369999389648438,16.39999791107178C26.07136938964844,16.287077911071776,25.76355938964844,16.200087911071776,25.449999389648436,16.139997911071777C25.04415938964844,16.065237911071776,24.652679389648437,15.926867911071778,24.289999389648436,15.729997911071777C23.94965938964844,15.540997911071777,23.741823389648438,15.179207911071778,23.749998389648436,14.789997911071778C23.730699489648437,14.384870911071777,23.933902389648438,14.001470911071777,24.279998389648437,13.789999911071778C24.69271938964844,13.523156911071778,25.179239389648437,13.393651011071777,25.66999938964844,13.420000081071777C26.889999389648438,13.399999611071777,27.569999389648437,13.889999911071778,27.679999389648437,14.879997911071777Z" fill="url(#master_svg6_sa461_40491)" fill-opacity="1"/></g><g><path d="M30.09999931335449,13.529999504089355L31.09999931335449,13.529999504089355L31.09999931335449,14.369999504089355L30.09999931335449,14.369999504089355L30.09999931335449,16.999999504089356C30.088199313354494,17.089399504089357,30.113489313354492,17.179729504089355,30.16999931335449,17.249999504089356C30.22960931335449,17.311689504089355,30.314979313354492,17.341389504089356,30.399999313354492,17.329999504089354L30.999999313354493,17.329999504089354L30.999999313354493,18.179999504089356L30.219999313354492,18.179999504089356C29.891169313354492,18.205909504089355,29.56704931335449,18.089369504089355,29.32999931335449,17.859999504089355C29.134416313354492,17.617829504089357,29.03793131335449,17.310509504089357,29.059999313354492,16.999999504089356L29.059999313354492,14.369999504089355L28.219999313354492,14.369999504089355L28.219999313354492,13.529999504089355L29.059999313354492,13.529999504089355L29.059999313354492,12.439999504089355L30.059999313354492,12.019999504089355L30.09999931335449,13.529999504089355Z" fill="url(#master_svg7_sa461_40494)" fill-opacity="1"/></g></g><g><g><path d="M35.91004122314453,38.99999664306641C36.16124122314453,39.560936643066405,36.79824122314453,39.83829664306641,37.38004122314453,39.639996643066404L42.220041223144534,37.639996643066404C42.61954122314453,37.46083664306641,42.88844122314453,37.076736643066404,42.92004122314453,36.639996643066404C42.90934122314453,36.20786664306641,42.65314122314453,35.81965664306641,42.260041223144526,35.639996643066404L37.510041223144526,33.459998643066406C37.36854122314453,33.391155643066405,37.21634122314453,33.347179643066404,37.06004122314453,33.329997643066406C36.60604122314453,33.326648643066406,36.19174122314453,33.588466643066404,36.000041223144535,33.9999966430664C35.76164122314453,34.566196643066405,36.01924122314453,35.2191266430664,36.58004122314453,35.46999664306641L39.000041223144535,36.519996643066406L36.62004122314453,37.519996643066406C36.01894122314453,37.73669664306641,35.70284122314453,38.395556643066406,35.91004122314453,38.99999664306641ZM28.400041223144534,42.15999664306641C28.98274122314453,42.35793664306641,29.615341223144533,42.043896643066404,29.81004122314453,41.459996643066404L32.250041223144535,33.9999966430664C32.43594122314453,33.41257464306641,32.12154122314453,32.783683643066404,31.54004122314453,32.580001843066405C31.43804122314453,32.54004284306641,31.32954122314453,32.519687653066406,31.22004122314453,32.52000045776641C30.73944122314453,32.547386143066404,30.31644122314453,32.84619564306641,30.13004122314453,33.290000643066406L27.690041223144533,40.74000664306641C27.486241223144532,41.328706643066404,27.80684122314453,41.96976664306641,28.400041223144534,42.15999664306641ZM17.46999922314453,37.669996643066405L22.290001223144532,39.669996643066405C22.87542122314453,39.901956643066406,23.538041223144532,39.6154166430664,23.770001223144533,39.03000664306641C24.00196122314453,38.444576643066405,23.71542122314453,37.781966643066404,23.130001223144532,37.54999664306641L20.75000122314453,36.54999664306641L23.130001223144532,35.459996643066404C23.68533122314453,35.20929664306641,23.94190122314453,34.563446643066406,23.71000122314453,33.9999966430664C23.51937122314453,33.61932664306641,23.13552122314453,33.37366064306641,22.71000122314453,33.36000064306641C22.54915122314453,33.346858643066405,22.38906122314453,33.393108643066405,22.26000122314453,33.49000164306641L17.49999822314453,35.67000664306641C17.11622422314453,35.85717664306641,16.86922262314453,36.24311664306641,16.85999870314453,36.67000664306641C16.82640072314453,37.10000664306641,17.072288223144533,37.50309664306641,17.46999922314453,37.669996643066405Z" fill="url(#master_svg8_sa461_40506)" fill-opacity="1"/></g><g><g mask="url(#master_svg9_944_001265)"><g><rect x="16.200000762939453" y="31.899999618530273" width="27.350000381469727" height="11.069999694824219" rx="0" fill="url(#master_svga_sa461_40503)" fill-opacity="1"/></g></g></g></g></g></g></svg>